<?xml version="1.0" encoding="UTF-8" standalone="no"?>
<!-- Created with Inkscape (http://www.inkscape.org/) -->

<svg
   xmlns:dc="http://purl.org/dc/elements/1.1/"
   xmlns:cc="http://creativecommons.org/ns#"
   xmlns:rdf="http://www.w3.org/1999/02/22-rdf-syntax-ns#"
   xmlns:svg="http://www.w3.org/2000/svg"
   xmlns="http://www.w3.org/2000/svg"
   xmlns:sodipodi="http://sodipodi.sourceforge.net/DTD/sodipodi-0.dtd"
   xmlns:inkscape="http://www.inkscape.org/namespaces/inkscape"
   version="1.1"
   id="svg2"
   xml:space="preserve"
   width="1588.8667"
   height="648.67999"
   viewBox="0 0 1588.8667 648.67999"
   sodipodi:docname="uselessarm.svg"
   inkscape:version="0.92.2 5c3e80d, 2017-08-06"><metadata
     id="metadata8"><rdf:RDF><cc:Work
         rdf:about=""><dc:format>image/svg+xml</dc:format><dc:type
           rdf:resource="http://purl.org/dc/dcmitype/StillImage" /><dc:title></dc:title></cc:Work></rdf:RDF></metadata><defs
     id="defs6"><clipPath
       clipPathUnits="userSpaceOnUse"
       id="clipPath50"><path
         d="M 0,486.51 H 1191.652 V 0 H 0 Z"
         id="path48"
         inkscape:connector-curvature="0" /></clipPath></defs><sodipodi:namedview
     pagecolor="#ffffff"
     bordercolor="#666666"
     borderopacity="1"
     objecttolerance="10"
     gridtolerance="10"
     guidetolerance="10"
     inkscape:pageopacity="0"
     inkscape:pageshadow="2"
     inkscape:window-width="1395"
     inkscape:window-height="790"
     id="namedview4"
     showgrid="false"
     inkscape:zoom="1"
     inkscape:cx="347.3142"
     inkscape:cy="535.39146"
     inkscape:window-x="20"
     inkscape:window-y="0"
     inkscape:window-maximized="0"
     inkscape:current-layer="g10" /><g
     id="g10"
     inkscape:groupmode="layer"
     inkscape:label="uselessarm"
     transform="matrix(1.3333333,0,0,-1.3333333,0,648.68)"><path
       style="fill:none;stroke:#000000;stroke-width:0.00075;stroke-linecap:butt;stroke-linejoin:miter;stroke-miterlimit:4;stroke-dasharray:none;stroke-opacity:1"
       d="m 57.3707,425.48342 c -4.11825,-1.14034 -5.92273,-2.98663 -5.92273,-2.98663 0,0 -4.74226,-1.46152 -7.11605,-14.7135 -2.37374,-13.25198 -7.07961,-59.3748 38.26185,-90.6062 45.34149,-31.2314 148.10792,41.39729 164.46646,55.189 16.47116,13.88671 42.23923,45.75304 50.49738,71.28959 3.70029,11.44232 4.30242,24.8614 -4.19494,29.62181 -8.49742,4.76042 -14.7381,7.39935 -22.10718,7.30849 l 10e-6,-5e-5 c -7.3691,-0.0909 -20.6649,-5.96679 -30.62876,-21.70297 -13.39072,-21.14833 -9.2045,-29.48438 -2.74264,-46.90725 4.02843,-10.86155 -112.49622,-107.87492 -148.12061,-69.71861 -16.27357,17.43016 -20.59222,34.75833 -16.65951,49.27861 5.46969,20.19512 2.46496,22.18591 -2.4971,30.54066 -1.44505,2.43304 -3.45475,3.36169 -5.96914,3.82198 l -2.39558,-22.51507 -7.38777,0.39897 z"
       id="path54-9"
       inkscape:connector-curvature="0"
       sodipodi:nodetypes="cccssszzcssssscccc" /><path
       style="fill:none;stroke:#000000;stroke-width:0.00075;stroke-linecap:butt;stroke-linejoin:miter;stroke-miterlimit:4;stroke-dasharray:none;stroke-opacity:1"
       d="m 24.35109,417.27568 c -6.50473,0.18549 -6.8924,-3.2063 -6.8924,-3.2063 0.69899,-24.11469 -21.8922401,-60.22122 -8.17572,-69.75925 7.25861,-5.04741 3.47536,20.6105 12.77552,20.46597 8.138,-0.12647 0.24358,-25.13376 7.54568,-21.41299 17.94962,9.14621 2.52241,39.74301 7.9831,70.50552 0.0852,2.82853 -3.45475,3.36169 -5.96914,3.82198 l -2.39558,-22.51507 -7.38777,0.39897 z"
       id="path54-9-8"
       inkscape:connector-curvature="0"
       sodipodi:nodetypes="ccsssccccc" /><path
       style="fill:none;stroke:#000000;stroke-width:0.00075;stroke-linecap:butt;stroke-linejoin:miter;stroke-miterlimit:4;stroke-dasharray:none;stroke-opacity:1"
       d="m 108.87578,476.93754 c -6.50473,0.18549 -6.8924,-3.2063 -6.8924,-3.2063 0.69899,-24.11469 -21.892244,-60.22122 -8.175724,-69.75925 7.258614,-5.04741 3.475359,20.6105 12.775524,20.46597 8.138,-0.12647 0.24358,-25.13376 7.54568,-21.41299 17.94962,9.14621 2.52241,39.74301 7.9831,70.50552 0.0852,2.82853 -3.45475,3.36169 -5.96914,3.82198 l -3.64558,-42.51507 -7.38777,0.39897 z"
       id="path54-9-8-0"
       inkscape:connector-curvature="0"
       sodipodi:nodetypes="ccsssccccc" /><path
       style="fill:none;stroke:#000000;stroke-width:0.00075;stroke-linecap:butt;stroke-linejoin:miter;stroke-miterlimit:4;stroke-dasharray:none;stroke-opacity:1"
       d="m 154.50078,475.37505 c -6.50473,0.18549 -6.8924,-3.2063 -6.8924,-3.2063 0.69899,-24.11469 -21.89225,-60.22122 -8.17573,-69.75925 7.25862,-5.04741 3.47536,20.6105 12.77553,20.46597 8.138,-0.12647 0.24358,-25.13376 7.54568,-21.41299 17.94962,9.14621 2.52241,39.74301 7.9831,70.50552 0.0852,2.82853 -3.45475,3.36169 -5.96914,3.82198 l -3.64558,-42.51507 -7.38777,0.39897 z"
       id="path54-9-8-0-2"
       inkscape:connector-curvature="0"
       sodipodi:nodetypes="ccsssccccc" /></g></svg>